<svg width="7" height="7" viewBox="0 0 7 7" fill="none" xmlns="http://www.w3.org/2000/svg">
<g clip-path="url(#clip0_410_144)">
<path d="M0.710388 2.01668C0.710388 1.87708 0.765847 1.74319 0.864564 1.64447C0.963281 1.54575 1.09717 1.4903 1.23678 1.4903H5.44789C5.5875 1.4903 5.72138 1.54575 5.8201 1.64447C5.91882 1.74319 5.97428 1.87708 5.97428 2.01668V5.17502C5.97428 5.31462 5.91882 5.44851 5.8201 5.54723C5.72138 5.64595 5.5875 5.70141 5.44789 5.70141H1.23678C1.09717 5.70141 0.963281 5.64595 0.864564 5.54723C0.765847 5.44851 0.710388 5.31462 0.710388 5.17502V2.01668Z" stroke="white" stroke-width="0.526389" stroke-linecap="round" stroke-linejoin="round"/>
<path d="M0.710388 2.54309L2.68461 4.12252C2.87129 4.27189 3.10325 4.35326 3.34233 4.35326C3.58141 4.35326 3.81337 4.27189 4.00006 4.12252L5.97428 2.54309" stroke="white" stroke-width="0.526389" stroke-linecap="round" stroke-linejoin="round"/>
</g>
<defs>
<clipPath id="clip0_410_144">
<rect width="6.31667" height="6.31667" fill="white" transform="translate(0.184021 0.4375)"/>
</clipPath>
</defs>
</svg>
