<svg width="7" height="7" viewBox="0 0 7 7" fill="none" xmlns="http://www.w3.org/2000/svg">
<path d="M6.27567 5.70145V3.64169C6.27568 3.49839 6.24644 3.35659 6.18974 3.22498C6.13303 3.09338 6.05005 2.97474 5.94589 2.87632L4.00535 1.04238C3.90762 0.949983 3.77822 0.898499 3.64372 0.898499C3.50923 0.898499 3.37983 0.949983 3.2821 1.04238L1.34156 2.87632C1.2374 2.97474 1.15442 3.09338 1.09771 3.22498C1.04101 3.35659 1.01176 3.49839 1.01178 3.64169V5.70145C1.01178 5.84106 1.06724 5.97495 1.16596 6.07366C1.26467 6.17238 1.39856 6.22784 1.53817 6.22784H5.74928C5.88889 6.22784 6.02278 6.17238 6.12149 6.07366C6.22021 5.97495 6.27567 5.84106 6.27567 5.70145Z" stroke="white" stroke-width="0.526389" stroke-linecap="round" stroke-linejoin="round"/>
</svg>
