<svg width="6" height="7" viewBox="0 0 6 7" fill="none" xmlns="http://www.w3.org/2000/svg">
<path d="M2.66036 2.07983L1.76998 1.05206C1.66733 0.933621 1.47915 0.934147 1.35992 1.05364L0.627711 1.78716C0.409786 2.00535 0.347409 2.32934 0.473479 2.58911C1.22664 4.14853 2.4843 5.40795 4.04266 6.16329C4.30217 6.28936 4.6259 6.22699 4.84382 6.0088L5.58287 5.26843C5.70263 5.14868 5.70289 4.95944 5.5834 4.8568L4.55168 3.97115C4.44377 3.8785 4.27611 3.89061 4.16794 3.99905L3.80894 4.35857C3.79056 4.37783 3.76637 4.39053 3.74008 4.39471C3.71379 4.3989 3.68685 4.39434 3.6634 4.38173C3.07659 4.04381 2.58982 3.55641 2.25267 2.96917C2.24005 2.94568 2.23548 2.91869 2.23966 2.89235C2.24384 2.86602 2.25655 2.84178 2.27583 2.82336L2.63378 2.46515C2.74222 2.35619 2.75406 2.18774 2.66036 2.07957V2.07983Z" stroke="white" stroke-width="0.526389" stroke-linecap="round" stroke-linejoin="round"/>
</svg>
