<svg width="7" height="7" viewBox="0 0 7 7" fill="none" xmlns="http://www.w3.org/2000/svg">
<path fill-rule="evenodd" clip-rule="evenodd" d="M4.89953 0.98649C5.93329 1.96741 5.99727 3.59336 5.04379 4.65247L6.22952 5.83427C6.28175 5.88835 6.281 5.9743 6.22784 6.02747C6.17468 6.08063 6.08872 6.08137 6.03464 6.02914L4.84891 4.84735C3.7898 5.80082 2.16385 5.73684 1.18293 4.70309C0.202016 3.66934 0.223348 2.04227 1.23103 1.03459C2.23871 0.0269061 3.86578 0.00557411 4.89953 0.98649ZM0.757239 2.90387C0.757239 4.19782 1.80619 5.24678 3.10015 5.24678C4.39347 5.24526 5.44154 4.19719 5.44306 2.90387C5.44306 1.60992 4.3941 0.560961 3.10015 0.560961C1.80619 0.560961 0.757239 1.60992 0.757239 2.90387Z" fill="#333333"/>
</svg>
